<?xml version="1.0" encoding="UTF-8"?>
<!-- Generator: Adobe Illustrator 25.3.1, SVG Export Plug-In . SVG Version: 6.00 Build 0) -->
<svg xmlns="http://www.w3.org/2000/svg" xmlns:xlink="http://www.w3.org/1999/xlink" id="Слой_1" x="0px" y="0px" viewBox="0 0 32 32" style="enable-background:new 0 0 32 32;" xml:space="preserve"> <style type="text/css"> .st0{fill:#666CFF;} .st1{fill:#FFFFFF;} .st2{fill:url(#SVGID_1_);fill-opacity:0.4;} .st3{fill:url(#SVGID_2_);fill-opacity:0.4;} </style> <path class="st0" d="M25.2,32H6.8C3,32,0,29,0,25.2V6.8C0,3,3,0,6.8,0h18.5C29,0,32,3,32,6.8v18.5C32,29,29,32,25.2,32z"/> <path class="st1" d="M13.4,13.5c-1.1,0.6-2.5,0.3-3.2-0.8c-0.6-1.1-0.3-2.5,0.9-3.1l7.5-4.3c1.1-0.6,2.5-0.3,3.2,0.8 c0.6,1.1,0.3,2.5-0.9,3.1L13.4,13.5z"/> <linearGradient id="SVGID_1_" gradientUnits="userSpaceOnUse" x1="10.2774" y1="21.2098" x2="21.7226" y2="27.9588" gradientTransform="matrix(1 0 0 -1 0 34)"> <stop offset="0" style="stop-color:#666CFF"/> <stop offset="1" style="stop-color:#666CFF;stop-opacity:0"/> </linearGradient> <path class="st2" d="M13.4,13.5c-1.1,0.6-2.5,0.3-3.2-0.8c-0.6-1.1-0.3-2.5,0.9-3.1l7.5-4.3c1.1-0.6,2.5-0.3,3.2,0.8 c0.6,1.1,0.3,2.5-0.9,3.1L13.4,13.5z"/> <path class="st1" d="M13.4,9.6c-1.1-0.6-2.5-0.3-3.2,0.8c-0.6,1.1-0.3,2.5,0.9,3.1l7.5,4.3c1.1,0.6,2.5,0.3,3.2-0.8 c0.6-1.1,0.3-2.5-0.9-3.1L13.4,9.6z"/> <path class="st1" d="M13.4,22.4c-1.1,0.6-2.5,0.3-3.2-0.8c-0.6-1.1-0.3-2.5,0.9-3.1l7.5-4.3c1.1-0.6,2.5-0.3,3.2,0.8 c0.6,1.1,0.3,2.5-0.9,3.1L13.4,22.4z"/> <linearGradient id="SVGID_2_" gradientUnits="userSpaceOnUse" x1="10.2774" y1="12.301" x2="21.7226" y2="19.05" gradientTransform="matrix(1 0 0 -1 0 34)"> <stop offset="0" style="stop-color:#666CFF"/> <stop offset="1" style="stop-color:#666CFF;stop-opacity:0"/> </linearGradient> <path class="st3" d="M13.4,22.4c-1.1,0.6-2.5,0.3-3.2-0.8c-0.6-1.1-0.3-2.5,0.9-3.1l7.5-4.3c1.1-0.6,2.5-0.3,3.2,0.8 c0.6,1.1,0.3,2.5-0.9,3.1L13.4,22.4z"/> <path class="st1" d="M13.4,18.5c-1.1-0.6-2.5-0.3-3.2,0.8c-0.6,1.1-0.3,2.5,0.9,3.1l7.5,4.3c1.1,0.6,2.5,0.3,3.2-0.8 c0.6-1.1,0.3-2.5-0.9-3.1L13.4,18.5z"/> </svg>